<svg width="23" height="16" viewBox="0 0 23 16" fill="none" xmlns="http://www.w3.org/2000/svg">
  <path d="M1 6.99023C0.447715 6.99023 0 7.43795 0 7.99023C0 8.54252 0.447715 8.99023 1 8.99023V6.99023ZM21.8361 8.69734C22.2267 8.30682 22.2267 7.67365 21.8361 7.28313L15.4722 0.919167C15.0817 0.528642 14.4485 0.528642 14.058 0.919167C13.6674 1.30969 13.6674 1.94286 14.058 2.33338L19.7148 7.99023L14.058 13.6471C13.6674 14.0376 13.6674 14.6708 14.058 15.0613C14.4485 15.4518 15.0817 15.4518 15.4722 15.0613L21.8361 8.69734ZM1 7.99023V8.99023H21.129V7.99023V6.99023H1V7.99023Z" fill="#1E1B1B" />
</svg>