<svg width="28" height="16" viewBox="0 0 28 16" fill="none"
    xmlns="http://www.w3.org/2000/svg">
    <path d="M27 9.00977C27.5523 9.00977 28 8.56205 28 8.00977C28 7.45748 27.5523 7.00977 27 7.00977L27 9.00977ZM0.292893 7.30266C-0.097631 7.69318 -0.0976311 8.32635 0.292893 8.71687L6.65685 15.0808C7.04738 15.4714 7.68054 15.4714 8.07107 15.0808C8.46159 14.6903 8.46159 14.0571 8.07107 13.6666L2.41421 8.00976L8.07107 2.35291C8.46159 1.96239 8.46159 1.32922 8.07107 0.938696C7.68054 0.548172 7.04738 0.548172 6.65685 0.938696L0.292893 7.30266ZM27 8.00977L27 7.00977L1 7.00976L1 8.00976L1 9.00976L27 9.00977L27 8.00977Z" fill="#F2F2F2" />
</svg>